<?xml version="1.0" encoding="utf-8"?>
<!-- Generator: Adobe Illustrator 27.4.1, SVG Export Plug-In . SVG Version: 6.00 Build 0)  -->
<svg version="1.1" id="Layer_1" xmlns="http://www.w3.org/2000/svg" xmlns:xlink="http://www.w3.org/1999/xlink" x="0px" y="0px"
	 viewBox="0 0 285 185" style="enable-background:new 0 0 285 185;" xml:space="preserve">
<style type="text/css">
	.st0{fill:#00FFF8;}
	.st1{fill:#FFFFFF;}
</style>
<g>
	<path class="st0" d="M41.3,174.4c-4.3,0-7.6-1.1-9.8-3.4c-2.2-2.3-3.4-5.4-3.4-9.4c0-4.3,1.1-7.6,3.4-10.1s5.6-3.7,10.1-3.7
		c1.5,0,2.9,0.1,4.2,0.3c1.3,0.2,2.4,0.4,3.6,0.8v4.6c-1.1-0.4-2.3-0.7-3.5-0.9c-1.2-0.2-2.5-0.3-3.8-0.3c-3.1,0-5.2,0.8-6.5,2.3
		c-1.3,1.5-1.9,3.8-1.9,6.9c0,5.5,2.6,8.3,7.8,8.3c0.9,0,1.8-0.1,2.7-0.2c0.9-0.1,1.6-0.3,2.3-0.6v-6h-6v-3.4h10.6v12.6
		c-0.9,0.6-2.1,1.1-3.7,1.5C45.7,174.2,43.7,174.4,41.3,174.4z"/>
	<path class="st0" d="M60,174.4c-1.8,0-3.2-0.4-4-1.3c-0.8-0.9-1.3-2.2-1.3-4.1v-22h5.4v21.6c0,0.7,0.1,1.1,0.4,1.4
		c0.3,0.3,0.7,0.4,1.2,0.4c0.7,0,1.3-0.1,1.9-0.3v3.7C62.5,174.2,61.3,174.4,60,174.4z"/>
	<path class="st0" d="M76.1,174.4c-3.5,0-6.1-0.9-7.8-2.6c-1.7-1.7-2.5-4.2-2.5-7.3c0-3.1,0.8-5.6,2.5-7.3c1.7-1.7,4.3-2.6,7.8-2.6
		c3.5,0,6.2,0.9,7.8,2.6c1.7,1.7,2.5,4.2,2.5,7.3c0,3.1-0.8,5.6-2.5,7.3C82.3,173.6,79.7,174.4,76.1,174.4z M76.1,169.8
		c1.7,0,3-0.4,3.7-1.2c0.7-0.8,1.1-2.2,1.1-4.1c0-1.9-0.4-3.3-1.1-4.1c-0.7-0.8-2-1.2-3.7-1.2c-1.7,0-2.9,0.4-3.7,1.2
		c-0.7,0.8-1.1,2.2-1.1,4.1c0,1.9,0.4,3.3,1.1,4.1C73.2,169.4,74.4,169.8,76.1,169.8z"/>
	<path class="st0" d="M99.9,174.4c-3.4,0-6-0.8-7.8-2.5c-1.8-1.7-2.7-4.1-2.7-7.4c0-3.3,1-5.8,2.9-7.4c1.9-1.6,4.5-2.4,7.7-2.4
		c1.3,0,2.5,0.1,3.4,0.3c1,0.2,1.9,0.5,2.8,0.9v3.9c-0.7-0.3-1.4-0.6-2.3-0.8c-0.9-0.2-1.8-0.3-2.8-0.3c-2,0-3.6,0.4-4.6,1.3
		c-1.1,0.8-1.6,2.4-1.6,4.6c0,2,0.5,3.5,1.5,4.4c1,0.9,2.6,1.4,4.7,1.4c0.9,0,1.8-0.1,2.7-0.3c0.9-0.2,1.7-0.5,2.5-0.8v4
		C104.5,174,102.4,174.4,99.9,174.4z"/>
	<path class="st0" d="M115.7,174.4c-1.2,0-2.3-0.2-3.3-0.7c-1-0.4-1.9-1.1-2.5-2c-0.6-0.9-0.9-2-0.9-3.3c0-1.9,0.7-3.4,2-4.5
		s3.3-1.7,5.9-1.7h5.6v-0.5c0-1.2-0.3-2-1-2.5c-0.7-0.5-2-0.7-3.9-0.7c-2.2,0-4.2,0.3-6.2,1v-3.8c0.9-0.3,2-0.6,3.2-0.9
		c1.3-0.2,2.6-0.3,4.1-0.3c2.9,0,5.1,0.6,6.6,1.7c1.6,1.2,2.3,3,2.3,5.6v12h-4.7l-0.3-1.7c-0.7,0.7-1.7,1.2-2.8,1.6
		C118.7,174.2,117.3,174.4,115.7,174.4z M117.1,170.9c1.2,0,2.2-0.2,3.1-0.6c0.9-0.4,1.6-0.9,2.1-1.5v-3h-5.5
		c-2.1,0-3.2,0.9-3.2,2.6C113.7,170,114.8,170.9,117.1,170.9z"/>
	<path class="st0" d="M137.1,174.4c-1.8,0-3.2-0.4-4-1.3c-0.8-0.9-1.3-2.2-1.3-4.1v-22h5.4v21.6c0,0.7,0.1,1.1,0.4,1.4
		c0.3,0.3,0.7,0.4,1.2,0.4c0.7,0,1.3-0.1,1.9-0.3v3.7C139.7,174.2,138.5,174.4,137.1,174.4z"/>
	<path class="st1" d="M160.6,174.4c-1.7,0-3.2-0.1-4.6-0.4c-1.4-0.2-2.7-0.6-3.7-1v-4.8c1.2,0.5,2.4,0.9,3.8,1.2
		c1.4,0.3,2.7,0.4,4,0.4c1.9,0,3.2-0.2,4.1-0.5c0.9-0.3,1.3-1.1,1.3-2.4c0-0.8-0.2-1.4-0.6-1.8c-0.4-0.5-1-0.9-1.9-1.2
		s-2.2-0.8-3.9-1.2c-2.7-0.7-4.6-1.7-5.7-2.8c-1.1-1.1-1.6-2.7-1.6-4.6c0-2.4,0.9-4.2,2.6-5.5c1.7-1.3,4.3-1.9,7.6-1.9
		c1.5,0,3,0.1,4.3,0.3c1.3,0.2,2.4,0.5,3.2,0.8v4.8c-2.2-0.8-4.5-1.2-6.8-1.2c-1.7,0-3,0.2-4,0.5s-1.4,1.1-1.4,2.3
		c0,0.7,0.2,1.2,0.5,1.6c0.3,0.4,0.9,0.8,1.8,1.1c0.8,0.3,2,0.7,3.5,1.1c2.1,0.6,3.7,1.2,4.9,2c1.1,0.8,1.9,1.7,2.4,2.6
		c0.4,1,0.7,2.1,0.7,3.3c0,2.2-0.9,4-2.6,5.4C166.7,173.7,164.1,174.4,160.6,174.4z"/>
	<path class="st1" d="M177.9,181.1c-0.8,0-1.6,0-2.2-0.1c-0.6-0.1-1.3-0.3-1.9-0.5v-3.8c0.5,0.2,0.9,0.3,1.3,0.3
		c0.4,0.1,0.8,0.1,1.2,0.1c1.1,0,1.9-0.3,2.5-0.8c0.6-0.5,1.2-1.4,1.8-2.6l-8.5-18.6h5.6l5.6,12.9l5.5-12.9h5.6l-7.5,17.6
		c-0.7,1.7-1.4,3.1-2.3,4.4c-0.8,1.3-1.8,2.2-2.9,2.9C180.8,180.7,179.5,181.1,177.9,181.1z"/>
	<path class="st1" d="M202.4,174.4c-1.4,0-2.8-0.1-4-0.3c-1.3-0.2-2.3-0.4-3.1-0.7v-4.5c0.9,0.4,2,0.7,3.2,0.9
		c1.2,0.2,2.3,0.3,3.2,0.3c1.3,0,2.3-0.1,2.8-0.2c0.5-0.2,0.8-0.5,0.8-1.1c0-0.6-0.4-1.1-1.3-1.4c-0.8-0.3-2.1-0.7-3.7-1.2
		c-1.7-0.6-3.1-1.3-4-2.1c-0.9-0.8-1.4-2.1-1.4-3.7c0-1.8,0.7-3.2,2-4.2c1.3-1,3.4-1.5,6.4-1.5c1.2,0,2.3,0.1,3.3,0.3
		c1,0.2,1.9,0.4,2.6,0.6v4.4c-0.7-0.3-1.5-0.6-2.5-0.8c-0.9-0.2-1.8-0.3-2.6-0.3c-1.1,0-2.1,0.1-2.7,0.2c-0.7,0.2-1,0.5-1,1
		c0,0.6,0.4,1,1.1,1.2c0.7,0.2,1.9,0.6,3.4,1.1c1.5,0.5,2.7,0.9,3.6,1.5c0.9,0.5,1.5,1.2,1.8,1.9c0.3,0.7,0.5,1.6,0.5,2.7
		C210.8,172.5,208,174.4,202.4,174.4z"/>
	<path class="st1" d="M221.4,174.4c-2.2,0-3.8-0.6-4.9-1.7c-1.1-1.1-1.6-2.7-1.6-4.7v-8.8h-2.7v-4.2h2.7V151l5.4-1.6v5.7h4.8
		l-0.3,4.2h-4.5v8.4c0,1,0.2,1.8,0.7,2.1c0.5,0.4,1.2,0.6,2.2,0.6c0.7,0,1.5-0.1,2.3-0.4v3.7c-0.6,0.2-1.2,0.4-1.9,0.5
		C223.1,174.4,222.3,174.4,221.4,174.4z"/>
	<path class="st1" d="M238.3,174.4c-3.3,0-5.9-0.8-7.8-2.5s-2.9-4.1-2.9-7.5c0-3,0.8-5.4,2.4-7.2c1.6-1.8,4-2.7,7.2-2.7
		c2.9,0,5.2,0.8,6.7,2.3c1.6,1.5,2.3,3.5,2.3,6v3.4h-13.7c0.3,1.5,1,2.6,2.1,3.1c1.1,0.6,2.7,0.8,4.7,0.8c1,0,2-0.1,3.1-0.3
		c1.1-0.2,2-0.4,2.7-0.7v3.8c-0.9,0.4-1.9,0.7-3.1,0.9C241,174.3,239.7,174.4,238.3,174.4z M232.6,163.1h9v-1c0-1.1-0.3-2-1-2.6
		c-0.6-0.6-1.7-0.9-3.2-0.9c-1.8,0-3,0.4-3.7,1.1C233,160.3,232.6,161.5,232.6,163.1z"/>
	<path class="st1" d="M250.1,174v-19h5l0.2,1.8c0.9-0.7,1.9-1.2,3-1.6c1.1-0.4,2.2-0.6,3.5-0.6c1.3,0,2.4,0.2,3.1,0.6
		c0.7,0.4,1.3,1,1.7,1.7c0.9-0.7,1.9-1.3,3-1.7c1.1-0.4,2.5-0.6,4-0.6c2.2,0,3.8,0.6,4.8,1.7c1,1.1,1.6,2.9,1.6,5.2V174h-5.3v-11.9
		c0-1.3-0.3-2.2-0.8-2.7c-0.5-0.5-1.4-0.8-2.6-0.8c-1.6,0-2.9,0.6-4,1.7c0.1,0.5,0.2,1,0.2,1.6v12h-5v-11.9c0-1.2-0.2-2.1-0.6-2.6
		c-0.4-0.6-1.2-0.9-2.3-0.9c-0.8,0-1.6,0.2-2.3,0.6c-0.7,0.4-1.3,0.9-1.9,1.4V174H250.1z"/>
</g>
<path class="st0" d="M37.2,68.5c0-11.2,0-22.5,0-33.7c0-1.1,0.7-1.9,1.7-1.9c2.7-0.2,3.3,0.4,3.3,3.1c0,21.2,0,42.4,0,63.6
	c0,4.2,1.2,8.2,3.3,11.8c1.6,2.9,3.5,5.7,6.1,7.9c2.5,2.1,5.1,4.1,8.1,5.5c5.1,2.3,10.4,2.8,15.8,2.3c1.2-0.1,2.3-0.8,3.4-0.9
	c2.2-0.2,4.1-1.2,6-2.1c2.1-1,4-2.4,5.8-3.8c1.8-1.4,2.9-3.1,4.3-4.8c3-3.6,4.6-7.7,5.6-12.1c0.4-1.9,0.6-3.8,0.6-5.7
	c0.1-8.2,0.1-16.4,0-24.6c0-1.2,0.4-1.6,1.5-1.5c0.9,0.1,1.7,0.1,2.6,0c0.8-0.1,1.1,0.2,1.1,1.1c-0.1,2.2,0,4.3,0,6.5
	c0,6.8-0.1,13.7-0.1,20.5c0,1.6-0.5,3.1-0.6,4.6c-0.3,2.5-1.3,4.9-2.2,7.1c-0.9,2.3-2.4,4.5-3.9,6.6c-3.7,5-8.4,8.8-14.1,11.3
	c-3,1.3-6.1,2.3-9.3,2.6c-5.5,0.6-11,0.3-16.3-1.6c-4.2-1.6-7.9-3.8-11.3-6.8c-3.3-2.9-6-6.3-8.1-10.2c-2.4-4.7-3.7-9.7-3.6-15.1
	C37.2,88.4,37.2,78.5,37.2,68.5C37.2,68.5,37.2,68.5,37.2,68.5z"/>
<path class="st0" d="M74.3,67.3c0,10.1,0,20.1,0,30.2c0,1.3-0.2,2.1-1.6,2.6c-1.5,0.5-3.3-0.4-3.4-2c0-0.5,0-1,0-1.5
	c0-18.8,0-37.6,0-56.4c0-6.6-1.5-12.8-5.2-18.3c-2.5-3.7-5.7-6.7-9.7-8.9c-3.4-1.9-7.1-3.2-10.9-3.7C39.8,8.8,36.1,9,32.4,9.9
	c-3.7,0.9-7.1,2.5-10.2,4.8c-6,4.4-9.8,10.1-11.5,17.3c-0.5,2-0.6,4.1-0.6,6.1c0,5.7,0,11.4,0,17.1c0,0.9-0.2,1.3-1.2,1.2
	c-0.9-0.1-1.8-0.1-2.7,0c-1,0.1-1.2-0.3-1.2-1.2C5,50.1,5.1,45,5,39.8c-0.1-4.5,0.4-8.9,2-13.1c1.6-4.4,4.1-8.3,7.3-11.7
	c4.1-4.3,9-7.4,14.7-9.3c4.4-1.4,8.8-2.1,13.4-1.6c7.1,0.7,13.5,3.1,19.1,7.6c2.3,1.8,4.4,3.8,6,6.1c3.2,4.6,5.6,9.5,6.4,15.2
	c0.3,2.5,0.5,5.1,0.5,7.6C74.3,49.6,74.3,58.4,74.3,67.3z"/>
<path class="st1" d="M122.7,21.9c7.8,8.2,15.5,16.2,23.4,24.5c0-0.7,0-1.2,0-1.6c0-6.5,0-13,0-19.6c0-1,0.3-1.4,1.3-1.3
	c1.2,0.1,2.7-0.5,3.5,0.3c0.7,0.7,0.2,2.2,0.2,3.4c0,9.6,0,19.3,0,28.9c0,0.5,0,1,0,1.9c-8-8.3-15.7-16.3-23.6-24.6
	c0,0.7,0,1.2,0,1.7c0,6.5,0,13,0,19.6c0,1-0.2,1.4-1.3,1.3c-0.9-0.1-1.8-0.1-2.7,0c-0.7,0-1.1-0.1-1.1-1c0-11,0-21.9,0-32.9
	C122.6,22.4,122.6,22.3,122.7,21.9z"/>
<path class="st1" d="M185.3,38.8c0.7,0.7,1.7,1,2.5,1.6c4.9,4.1,3.6,12.9-3.2,15.3c-1.7,0.6-3.4,0.8-5.2,0.7c-2.2-0.1-4.4-0.1-6.7,0
	c-0.9,0-1.3-0.1-1.3-1.2c0-10,0-20.1,0-30.1c0-0.9,0.2-1.2,1.1-1.2c2.8,0.1,5.7,0,8.5,0.5c3.2,0.6,5.2,2.5,6.2,5.5
	C188.2,33,187.9,36.6,185.3,38.8z M179.1,51.7c1.1,0,2.3,0,3.3-0.3c2.3-0.8,3.2-2.2,3.3-4.4c0.1-1.7-1.1-3.8-3.1-4.4
	c-1.8-0.5-3.6-0.5-5.5-0.6c-0.7,0-0.8,0.4-0.8,0.9c0,2,0,4,0,6C176.4,51.7,176.4,51.7,179.1,51.7z M176.4,33c0,1.3,0,2.6,0,3.9
	c0,0.4-0.1,0.9,0.6,1c3.1,0.5,5.3-0.9,6-3.9c0.4-1.8-0.5-4.5-2.6-5.1c-1-0.3-2.1-0.3-3.2-0.4c-0.6-0.1-0.9,0.2-0.9,0.8
	C176.4,30.6,176.4,31.8,176.4,33z"/>
<path class="st1" d="M208.5,21.8c1.8,4,3.5,7.7,5.1,11.4c3.1,6.9,6.1,13.7,9.2,20.6c1.2,2.6,1.2,2.6-1.6,2.6c-2.7,0-2.7,0-3.8-2.4
	c-0.6-1.3-1.1-2.7-1.7-4c-0.4-0.9-0.8-1.5-2.1-1.4c-3.7,0.1-7.4,0.1-11.1,0c-0.8,0-1.3,0.2-1.6,1c-0.8,2-1.8,3.9-2.7,5.9
	c-0.3,0.7-0.7,1.1-1.5,1c-1.4-0.1-2.9,0-4.4,0C197.7,44.9,203,33.5,208.5,21.8z M208.4,33c-1.7,3.7-3.2,7.1-4.9,10.8
	c3.1,0,5.9,0,8.8,0c0.7,0,0.7-0.3,0.5-0.8C211.4,39.8,209.9,36.5,208.4,33z"/>
<path class="st1" d="M96.9,35.6c0,3.4,0,6.8,0,10.2c0,3.3,2.7,6,6.1,6.6c2.3,0.4,6.2-1,7.2-4.3c0.5-1.4,0.6-3,0.6-4.5
	c0-6.1,0-12.2,0-18.3c0-1.1,0.3-1.5,1.4-1.3c1.2,0.1,2.7-0.5,3.4,0.2c0.8,0.7,0.2,2.2,0.2,3.4c0,5.8,0.1,11.6,0,17.4
	c-0.1,7.4-5.6,12-12.2,12.1c-5.7,0.1-11.9-4.7-11.9-12.1c0.1-6.6,0-13.2,0-19.8c0-0.9,0.2-1.2,1.1-1.1c0.9,0.1,1.8,0.1,2.7,0
	c1-0.1,1.2,0.3,1.2,1.2C96.8,28.7,96.8,32.2,96.9,35.6C96.8,35.6,96.9,35.6,96.9,35.6z"/>
<path class="st1" d="M158.8,40.2c0-5,0-10,0-15.1c0-0.9,0.2-1.3,1.2-1.2c1.2,0.1,2.8-0.5,3.5,0.2c0.8,0.7,0.2,2.3,0.2,3.5
	c0,9,0,18.1,0,27.1c0,1.4-0.4,1.8-1.7,1.6c-0.5-0.1-1.1-0.1-1.6,0c-1.5,0.2-1.8-0.4-1.7-1.8C158.9,49.8,158.8,45,158.8,40.2z"/>
<g>
	<path class="st1" d="M149.1,98.7c-0.7,2.2-3.1,8.3-4,9.8h-27.8l0.4-1.7c4.7-0.4,5.5-0.8,6.3-5.3l4.9-25c0.9-4.7,0.3-4.8-4.7-5.3
		l0.4-1.7h15.9l-0.3,1.7c-4.9,0.4-5.5,0.7-6.4,5.3l-4.6,24.1c-0.8,4.3-0.6,5.7,3.4,5.7h3.6c3.5,0,4.9-0.3,6.7-2
		c1.4-1.3,3-3.5,4.4-6.2L149.1,98.7z"/>
	<path class="st1" d="M176.5,103.1c-2.9,4-6.7,6.1-8.3,6.1s-2.4-1.4-1.3-6.8l0.8-4.1c-2.2,3.7-5.4,6.7-7.2,8.1
		c-1.9,1.6-4.2,2.9-6.2,2.9c-2.1,0-3.8-2.6-3.8-7.4c0-5.6,2.6-11.9,6.7-15.6c3.1-2.9,7.4-4.7,11.5-4.7c3.1,0,5.8,0.9,7,1
		c-1.1,3.8-3.2,13-4.3,19.8c-0.3,1.7-0.2,2.3,0.3,2.3c0.7,0,2-0.8,4.1-3L176.5,103.1z M165.6,98.1c1.3-1.7,2.9-4.7,3.5-7.2
		c0.6-2.3,1.1-4.4,1.3-5.9c-0.8-0.4-2.8-1-4.6-1c-7.1,0-10.4,9.1-10.4,16.9c0,2.4,0.7,4,1.9,4C159.2,105,161.9,103.1,165.6,98.1z"/>
	<path class="st1" d="M194,84.3c-1.2,0.1-4.3,0.4-6.1,0.4c-2.7,12.5-3.5,16.3-3.8,18.1c-0.3,1.9,0.1,2.4,0.6,2.4
		c1.2,0,3.2-1.6,5.4-3.8l0.8,1.5c-1.9,2.9-6.6,6.4-9.2,6.4c-2.1,0-3.1-1.6-1.6-8.7l3.5-15.9h-4.8v-0.5l1.7-1.9h3.6l1.4-6.4
		c1-0.5,3.5-2.2,4.7-3.3l0.5,0.3c-0.7,2.4-1.7,6.3-2.3,9.4h6.7L194,84.3z"/>
	<path class="st1" d="M228.1,108.5h-14.6l0.3-1.7c4.3-0.5,4.8-1,4.5-3.6c-0.3-2.5-0.8-5.5-1.3-8.9h-12.6c-1,1.9-3.1,5.4-4.4,8.1
		c-1.9,3.5-1,4,3.7,4.4l-0.4,1.7h-13.7l0.4-1.7c3.8-0.5,4.6-0.8,7.6-5.8l18.4-32l2-0.3c2.6,17.6,4,25.7,5.2,32.9
		c0.7,4.2,1.1,4.7,5.5,5.2L228.1,108.5z M214.3,76.3h-0.1c-3.1,5.6-6.1,11-8.6,15.6h11L214.3,76.3z"/>
	<path class="st1" d="M268.4,81.5c1.9,0,3.8,0.9,2,8.6c-0.8,3.7-2.1,8.8-3,12.6c-0.4,1.6-0.4,2.2,0.1,2.2c0.5,0,2.3-0.9,4.5-3.2
		l0.9,1.5c-3.1,4.1-7.1,6.1-8.8,6.1c-1.5,0-2.3-1.4-1.1-6.5c1-4.1,2.2-9.2,3.2-13.2c0.8-3.3,0.3-4.2-0.7-4.2c-1.9,0-7,3.4-11,10
		c-1.1,1.7-1.6,3-2.1,5c-0.5,2.3-1.3,5.3-1.7,7.8c-1.6,0.2-3.1,0.7-4.3,1.1l-0.4-0.4c1.5-6.1,3-11.9,4.3-18c0.8-3.7,0.7-5.5-0.7-5.5
		c-2,0-6.8,3.6-10.7,10c-1,1.6-1.6,3.2-2,5c-0.5,2.3-1.3,5.3-1.7,7.7c-1.6,0.2-3.2,0.7-4.3,1.1l-0.4-0.4c1.6-6.1,3.5-13.9,4.9-20.5
		c0.4-2,0.2-2.5-0.2-2.5c-0.7,0-2.3,1.3-3.8,2.7l-0.8-1.6c2.8-3.3,5.9-5.6,7.9-5.6c1.7,0,2.2,2.4,1.1,7l-0.9,4.1
		c5.5-7.6,11.1-11.1,14.1-11.1c2.1,0,3.5,1.6,1.9,9.2l-0.4,2C259.2,85.2,265.3,81.5,268.4,81.5z"/>
</g>
</svg>
