<?xml version="1.0" encoding="utf-8"?>
<!-- Generator: Adobe Illustrator 27.2.0, SVG Export Plug-In . SVG Version: 6.00 Build 0)  -->
<svg version="1.1" id="Capa_1" xmlns="http://www.w3.org/2000/svg" xmlns:xlink="http://www.w3.org/1999/xlink" x="0px" y="0px"
	 viewBox="0 0 100 126.7" style="enable-background:new 0 0 100 126.7;" xml:space="preserve">
<style type="text/css">
	.st0{fill:#00FFF8;}
</style>
<path class="st0" d="M31.7,63.6c0-11.1,0-22.1,0-33.2c0-1.1,0.7-1.8,1.7-1.9c2.6-0.2,3.2,0.4,3.2,3.1c0,20.9,0,41.8,0,62.6
	c0,4.1,1.2,8.1,3.2,11.7c1.6,2.9,3.5,5.6,6,7.8c2.5,2.1,5,4,8,5.4c5,2.2,10.2,2.7,15.6,2.3c1.2-0.1,2.3-0.8,3.4-0.9
	c2.2-0.2,4.1-1.2,5.9-2.1c2.1-1,3.9-2.4,5.7-3.8c1.7-1.3,2.9-3.1,4.3-4.7c2.9-3.5,4.5-7.6,5.6-11.9c0.4-1.8,0.6-3.7,0.6-5.6
	c0.1-8.1,0.1-16.1,0-24.2c0-1.2,0.4-1.6,1.5-1.4c0.8,0.1,1.7,0.1,2.5,0s1.1,0.2,1.1,1.1c0,2.1,0,4.3,0,6.4c0,6.7-0.1,13.5-0.1,20.2
	c0,1.6-0.5,3-0.6,4.6c-0.3,2.5-1.2,4.8-2.1,7c-0.9,2.3-2.3,4.5-3.8,6.5c-3.7,4.9-8.2,8.7-13.8,11.2c-2.9,1.3-6,2.2-9.2,2.6
	c-5.5,0.6-10.8,0.3-16-1.6c-4.1-1.5-7.8-3.7-11.1-6.7c-3.3-2.9-5.9-6.2-7.9-10.1c-2.4-4.6-3.6-9.6-3.6-14.8
	C31.7,83.2,31.7,73.4,31.7,63.6L31.7,63.6z"/>
<path class="st0" d="M68.3,62.4c0,9.9,0,19.8,0,29.7c0,1.2-0.2,2.1-1.5,2.6c-1.5,0.5-3.2-0.4-3.3-1.9c0-0.5,0-1,0-1.5
	c0-18.5,0-37,0-55.5c0-6.5-1.5-12.6-5.1-18c-2.4-3.6-5.6-6.6-9.5-8.8c-3.4-1.9-7-3.2-10.8-3.7c-3.7-0.5-7.4-0.3-11,0.6
	c-3.6,0.9-7,2.5-10,4.7c-5.9,4.3-9.6,10-11.4,17.1c-0.5,2-0.6,4-0.6,6c0,5.6,0,11.2,0,16.9c0,0.9-0.2,1.3-1.2,1.2
	c-0.9-0.1-1.8-0.1-2.7,0S0,51.5,0,50.6c0-5.1,0.1-10.2,0-15.3c-0.1-4.5,0.4-8.8,2-13c1.6-4.3,4-8.2,7.2-11.5
	c4.1-4.3,8.9-7.3,14.5-9.1c4.3-1.4,8.7-2,13.2-1.6c6.9,0.7,13.3,3,18.8,7.5c2.2,1.8,4.3,3.8,5.9,6.1c3.2,4.5,5.5,9.4,6.3,15
	c0.3,2.5,0.5,5,0.5,7.5C68.3,44.9,68.3,53.6,68.3,62.4z"/>
</svg>
